Coordinates
version=1
nRows=42
nColumns=11
inDegrees=yes

Units are S.I. units (second, meters, Newtons, ...)
If the header above contains a line with 'inDegrees', this indicates whether rotational values are in degrees (yes) or radians (no).

endheader
time	pelvis_tilt	pelvis_tx	pelvis_ty	hip_flexion_l	hip_flexion_r	knee_angle_l	knee_angle_r	ankle_angle_l	ankle_angle_r	lumbar_extension
      1.85000000	      2.05342394	     -0.99658226	      0.89380922	     13.06536418	     11.75879510	    -28.19526357	    -65.95559507	     13.52474532	    -17.41694609	     -9.78997158
      1.86000000	      1.90773489	     -0.98926086	      0.89511974	     12.22742339	     13.88843978	    -27.34494199	    -67.50687426	     13.50921615	    -15.69112972	    -10.24337182
      1.87000000	      1.81187267	     -0.98198274	      0.89649083	     11.31735550	     16.00859754	    -26.44359674	    -68.83253226	     13.54483348	    -13.95905813	    -10.72748032
      1.88000000	      1.78087227	     -0.97457779	      0.89791222	     10.32373920	     18.10295184	    -25.54830099	    -70.05284752	     13.57673443	    -11.91184588	    -11.23006610
      1.89000000	      1.67650596	     -0.96737978	      0.89918144	      9.41945852	     20.31729508	    -24.62500410	    -71.05343757	     13.53977513	     -9.68077311	    -11.67343784
      1.90000000	      1.72879906	     -0.95986227	      0.90075496	      8.29467604	     22.23390558	    -23.63960846	    -71.67741798	     13.60956405	     -7.19499147	    -12.26664997
      1.91000000	      1.60186047	     -0.95262801	      0.90205618	      7.45148741	     24.34053359	    -22.79975663	    -71.88609207	     13.49211409	     -4.95432187	    -12.66262863
      1.92000000	      1.53177546	     -0.94515976	      0.90333892	      6.49601076	     26.28485680	    -21.84754599	    -71.60530089	     13.33868812	     -3.37373608	    -13.09097291
      1.93000000	      1.44081922	     -0.93761756	      0.90464886	      5.54163856	     28.11651654	    -20.89197315	    -70.94096329	     13.22733032	     -1.79607651	    -13.48832272
      1.94000000	      1.23579509	     -0.93002617	      0.90565044	      4.73614643	     29.93617873	    -19.97741881	    -69.71163173	     13.08756701	     -1.03446831	    -13.72590210
      1.95000000	      0.99878880	     -0.92235624	      0.90644662	      3.99059244	     31.62924429	    -19.12309125	    -68.14326078	     12.97192319	     -0.27340553	    -13.90287457
      1.96000000	      0.77283876	     -0.91458424	      0.90708675	      3.14023239	     33.11779541	    -18.05662390	    -66.13059233	     12.74298239	      0.35115760	    -14.08596786
      1.97000000	      0.61451841	     -0.90664063	      0.90768352	      2.27404626	     34.33384085	    -17.19340828	    -63.65975241	     12.70219140	      0.63534470	    -14.31821396
      1.98000000	      0.43151305	     -0.89860988	      0.90802216	      1.42061430	     35.35853029	    -16.30494989	    -60.80266110	     12.70114102	      0.90527108	    -14.51240969
      1.99000000	      0.41884730	     -0.89031613	      0.90829314	      0.46339181	     35.98037965	    -15.58069054	    -57.57462705	     12.74240257	      1.20121165	    -14.87144461
      2.00000000	      0.39822487	     -0.88172091	      0.90814799	     -0.54545881	     36.40799227	    -14.77980330	    -54.10864149	     12.71097492	      1.76240445	    -15.15704638
      2.01000000	      0.54748816	     -0.87274546	      0.90780057	     -1.65606571	     36.48332791	    -14.19398309	    -50.57067087	     12.80197738	      2.23524063	    -15.57086177
      2.02000000	      0.89347038	     -0.86329909	      0.90759963	     -3.16092579	     36.12306248	    -13.34712967	    -46.78226392	     12.87807362	      2.50752294	    -16.12785772
      2.03000000	      1.25662571	     -0.85349501	      0.90693791	     -4.60718088	     35.65585230	    -12.69528106	    -43.14135084	     13.04990444	      2.70551885	    -16.66733790
      2.04000000	      1.74558161	     -0.84318075	      0.90599164	     -6.13357678	     34.93421143	    -12.23003404	    -39.54663237	     13.36858330	      2.71409930	    -17.26641310
      2.05000000	      2.18517399	     -0.83253970	      0.90461362	     -7.59419856	     34.20576488	    -11.84665255	    -36.04590853	     13.76919260	      2.50842397	    -17.76120180
      2.06000000	      2.58117719	     -0.82179491	      0.90284145	     -8.93555108	     33.52142915	    -11.59109511	    -32.81444945	     14.30929692	      2.34394828	    -18.15918615
      2.07000000	      2.93808561	     -0.81085980	      0.90077978	    -10.17405398	     32.86128048	    -11.49781905	    -29.92338468	     14.83828105	      2.38020103	    -18.47596597
      2.08000000	      3.27318953	     -0.79978976	      0.89841108	    -11.29026081	     32.20842707	    -11.59556190	    -27.24242818	     15.44096264	      2.33302892	    -18.75253881
      2.09000000	      3.53448488	     -0.78859687	      0.89572121	    -12.28961069	     31.67469590	    -11.80137715	    -25.00210884	     16.20057396	      2.44991051	    -18.89500662
      2.10000000	      3.85369718	     -0.77727668	      0.89299460	    -13.25841274	     31.06672945	    -12.23029586	    -23.09323285	     16.68820832	      2.44465953	    -19.12199213
      2.11000000	      4.19307400	     -0.76578223	      0.89026489	    -14.25172222	     30.44167867	    -12.64746197	    -21.57486977	     17.03179998	      2.25159328	    -19.36088481
      2.12000000	      4.48898957	     -0.75414501	      0.88734076	    -15.15300460	     29.88372606	    -13.16588883	    -20.50300033	     17.65266840	      1.99110550	    -19.52096220
      2.13000000	      4.63960783	     -0.74241600	      0.88418758	    -15.81288856	     29.60104659	    -13.84379720	    -20.04214766	     18.43520267	      1.67004711	    -19.52618037
      2.14000000	      4.83893325	     -0.73046955	      0.88115920	    -16.51327547	     29.27874014	    -14.59527395	    -19.97143461	     18.73464785	      1.42791173	    -19.50185359
      2.15000000	      4.92973206	     -0.71818467	      0.87792304	    -17.05615707	     29.03993896	    -15.43643810	    -20.18510701	     19.19833790	      0.56062014	    -19.34506588
      2.16000000	      4.72697297	     -0.70600065	      0.87459005	    -17.17700000	     29.06576580	    -16.48139217	    -20.66622440	     19.43239022	     -1.32159082	    -18.86975337
      2.17000000	      4.24410580	     -0.69461256	      0.87176463	    -16.83145983	     29.51136523	    -17.67876780	    -21.84534430	     19.43022556	     -3.35786466	    -18.20868356
      2.18000000	      3.58111452	     -0.68326694	      0.86917143	    -16.27750227	     30.55444129	    -18.87639292	    -24.01083673	     19.12730333	     -2.89861992	    -17.36932798
      2.19000000	      2.88908040	     -0.67195653	      0.86713431	    -15.66289223	     31.85593575	    -20.04254227	    -26.06060887	     18.60435299	     -2.64698626	    -16.51404137
      2.20000000	      2.18992236	     -0.66071155	      0.86562350	    -14.97939286	     33.06797716	    -21.31350360	    -27.81557038	     17.91957665	     -2.98674779	    -15.69131847
      2.21000000	      1.63638809	     -0.64938293	      0.86489641	    -14.48868832	     33.80852641	    -22.47283901	    -29.30520859	     16.53702002	     -3.84843178	    -15.05092847
      2.22000000	      1.12766123	     -0.63807650	      0.86451432	    -13.85807892	     34.23593415	    -23.96720427	    -30.49606426	     15.08355238	     -4.07913171	    -14.45767137
      2.23000000	      0.59833790	     -0.62682695	      0.86472623	    -13.20634356	     34.36373776	    -25.34542567	    -31.09896181	     13.86413189	     -3.73647876	    -13.86282487
      2.24000000	      0.14668643	     -0.61507199	      0.86522788	    -12.57459897	     34.22340990	    -26.75594748	    -31.46728707	     11.91378735	     -3.35455348	    -13.31909996
      2.25000000	     -0.35289578	     -0.60337608	      0.86582368	    -11.74412482	     34.07776175	    -28.36409550	    -31.77958818	     10.06271939	     -2.89014492	    -12.69645663
      2.26000000	     -0.90764216	     -0.59196699	      0.86649993	    -10.71192760	     33.99879159	    -30.09743915	    -32.09111962	      8.10394696	     -2.25210611	    -12.05018477
